<?xml version="1.0" encoding="UTF-8" standalone="no"?>
<svg
   xmlns:dc="http://purl.org/dc/elements/1.1/"
   xmlns:cc="http://creativecommons.org/ns#"
   xmlns:rdf="http://www.w3.org/1999/02/22-rdf-syntax-ns#"
   xmlns:svg="http://www.w3.org/2000/svg"
   xmlns="http://www.w3.org/2000/svg"
   viewBox="0 0 960 960"
   height="960"
   width="960"
   xml:space="preserve"
   id="svg2"
   version="1.1"><metadata
     id="metadata8"><rdf:RDF><cc:Work
         rdf:about=""><dc:format>image/svg+xml</dc:format><dc:type
           rdf:resource="http://purl.org/dc/dcmitype/StillImage" /></cc:Work></rdf:RDF></metadata><defs
     id="defs6"><clipPath
       id="clipPath18"
       clipPathUnits="userSpaceOnUse"><path
         id="path16"
         d="M 0,720 H 720 V 0 H 0 Z" /></clipPath><linearGradient
       id="linearGradient42"
       spreadMethod="pad"
       gradientTransform="matrix(187.5088,0,0,187.5088,279.1445,403.92456)"
       gradientUnits="userSpaceOnUse"
       y2="0"
       x2="1"
       y1="0"
       x1="0"><stop
         id="stop36"
         offset="0"
         style="stop-opacity:1;stop-color:#f89736" /><stop
         id="stop38"
         offset="0.534828"
         style="stop-opacity:1;stop-color:#faef67" /><stop
         id="stop40"
         offset="1"
         style="stop-opacity:1;stop-color:#faef67" /></linearGradient><clipPath
       id="clipPath52"
       clipPathUnits="userSpaceOnUse"><path
         id="path50"
         d="M 0,720 H 720 V 0 H 0 Z" /></clipPath></defs><g
     transform="matrix(1.3333333,0,0,-1.3333333,0,960)"
     id="g10"><g
       id="g12"><g
         clip-path="url(#clipPath18)"
         id="g14"><g
           transform="translate(560.9795,292.1777)"
           id="g20"><path
             id="path22"
             style="fill:#303030;fill-opacity:1;fill-rule:nonzero;stroke:none"
             d="m 0,0 h -179.918 v 2.938 c 4.895,0.781 9.454,2.057 13.668,3.825 4.215,1.762 7.692,4.21 10.439,7.345 0.977,1.18 1.762,2.888 2.349,5.147 0.592,2.245 1.125,4.852 1.618,7.791 0.488,2.938 0.827,6.023 1.032,9.261 0.188,3.231 0.293,6.418 0.293,9.552 0,2.746 0.042,6.465 0.147,11.175 0.095,4.702 0.191,9.848 0.296,15.433 0.095,5.586 0.144,11.319 0.144,17.196 v 17.051 57.329 c 0,3.527 -0.049,7.152 -0.144,10.878 -0.105,3.721 -0.296,7.246 -0.59,10.582 -0.294,3.33 -0.787,6.319 -1.471,8.968 -0.688,2.647 -1.618,4.555 -2.794,5.731 -2.94,3.133 -6.078,5.145 -9.407,6.028 -3.335,0.882 -7.643,1.714 -12.933,2.498 v 2.942 H -14.994 L 5.002,163.162 2.06,161.688 c -15.878,19.795 -30.772,33.122 -44.69,39.984 -3.331,1.566 -9.508,2.94 -18.519,4.118 -9.015,1.173 -19.991,1.763 -32.925,1.763 -4.116,0 -8.379,-0.149 -12.789,-0.441 -4.411,-0.293 -7.596,-0.639 -9.554,-1.03 -0.398,-3.138 -0.736,-9.605 -1.032,-19.402 -0.29,-9.802 -0.439,-21.167 -0.439,-34.103 v -18.816 c 0,-5.099 0.046,-9.259 0.149,-12.495 0.096,-3.233 0.144,-5.73 0.144,-7.495 v -3.233 h 5.879 c 2.942,0 6.322,0.094 10.145,0.293 3.821,0.192 7.643,0.44 11.466,0.734 3.819,0.296 7.001,0.735 9.553,1.323 5.881,1.37 10.776,3.234 14.7,5.586 3.919,2.352 7.099,5.192 9.555,8.527 2.449,3.328 4.407,7.203 5.878,11.609 1.47,4.411 2.792,9.358 3.972,14.848 h 3.528 V 60.854 h -3.528 c -1.573,6.271 -3.972,12.736 -7.205,19.406 -3.235,6.66 -6.613,11.657 -10.142,14.988 -3.139,2.743 -6.91,4.998 -11.319,6.765 -4.408,1.762 -9.554,2.839 -15.436,3.232 -2.938,0.193 -5.393,0.34 -7.349,0.441 -1.958,0.096 -3.923,0.147 -5.881,0.147 h -5.877 -7.645 c -0.396,-2.746 -0.587,-6.763 -0.587,-12.052 v -16.464 -8.823 -9.99 c 0,-3.141 0.046,-6.129 0.149,-8.971 0.096,-2.842 0.144,-5.248 0.144,-7.199 0.194,-6.279 0.535,-12.203 1.03,-17.785 0.486,-5.588 1.618,-9.752 3.38,-12.502 1.763,-2.74 5.978,-4.697 12.644,-5.877 6.659,-1.175 13.913,-1.758 21.755,-1.758 3.328,0 7.591,0.096 12.788,0.289 5.188,0.194 10.628,0.69 16.316,1.469 6.272,0.781 12.05,2.301 17.343,4.559 5.293,2.25 10.387,5.437 15.29,9.558 4.895,4.109 9.649,9.16 14.258,15.137 4.601,5.978 9.356,13.181 14.257,21.61 l 3.236,-0.886 z" /></g></g></g><g
       id="g24"><g
         id="g26"><g
           id="g32"><g
             id="g34"><path
               id="path44"
               style="fill:url(#linearGradient42);stroke:none"
               d="m 279.145,503.852 93.586,-199.854 93.923,199.854 z" /></g></g></g></g><g
       id="g46"><g
         clip-path="url(#clipPath52)"
         id="g48"><g
           transform="translate(279.4424,391.6001)"
           id="g54"><path
             id="path56"
             style="fill:#303030;fill-opacity:1;fill-rule:nonzero;stroke:none"
             d="m 0,0 v -2.875 c 11.111,-0.963 18.873,-3.929 23.282,-8.913 3.258,-3.451 5.224,-7.861 5.896,-13.222 0.668,-5.368 1.006,-11.408 1.006,-18.117 0,-6.707 -0.387,-13.223 -1.151,-19.549 -0.768,-6.322 -1.921,-10.733 -3.453,-13.223 -4.596,-7.094 -10.88,-12.219 -18.824,-15.38 -7.959,-3.161 -16.534,-4.747 -25.732,-4.747 -12.845,0 -24.248,2.447 -34.213,7.333 -9.968,4.89 -18.401,11.737 -25.3,20.556 -6.903,8.815 -12.175,19.406 -15.813,31.768 -3.643,12.363 -5.461,26.02 -5.461,40.966 0,13.608 1.916,26.594 5.746,38.955 3.835,12.364 9.298,23.288 16.391,32.774 7.09,9.49 15.712,17.057 25.874,22.712 10.156,5.651 21.564,8.484 34.214,8.484 7.077,0 13.736,-0.732 19.998,-2.16 C 8.391,90.562 14.589,75.88 20.772,61.197 L 31.692,35.853 C 35.323,27.397 39.102,19.014 42.793,10.591 44.347,7.051 45.933,3.53 47.505,0 Z M 161.393,63.386 148.871,38.771 C 144.696,30.569 140.649,22.304 136.536,14.07 128.29,-2.388 120.268,-18.948 112.257,-35.512 l -11.93,-24.893 -7.029,-14.877 -7.006,14.865 -11.888,24.89 c -3.455,7.171 -6.92,14.337 -10.4,21.494 0.34,1.091 0.756,2.036 1.253,2.82 1.727,2.683 4.5,4.644 8.337,5.895 3.835,1.242 7.378,2.054 10.641,2.443 V 0 H 57.124 C 54.819,4.689 52.532,9.383 50.2,14.059 46.099,22.291 42.075,30.561 37.907,38.763 L 25.425,63.376 C 18.216,77.328 11.011,91.28 3.556,105.118 c 3.857,-0.936 7.555,-2.146 11.106,-3.634 9.579,-4.027 17.436,-9.298 23.57,-15.812 4.79,-4.986 9.298,-11.313 13.513,-18.976 4.212,-7.668 7.377,-15.812 9.488,-24.436 h 3.447 v 62.673 h -2.586 c -2.489,-3.262 -4.594,-6.039 -6.32,-8.336 -1.729,-2.301 -2.783,-3.453 -3.165,-3.453 -0.387,0 -2.21,1.008 -5.461,3.02 -3.265,2.011 -7.908,4.214 -13.947,6.613 -6.036,2.392 -13.466,4.598 -22.281,6.611 -3.362,0.769 -6.924,1.386 -10.679,1.863 -0.182,0.332 -0.359,0.666 -0.544,1 0.133,-0.329 0.269,-0.655 0.4,-0.983 -6.047,0.757 -12.592,1.138 -19.65,1.138 -19.169,0 -35.461,-2.731 -48.872,-8.194 -13.418,-5.46 -24.724,-12.695 -33.924,-21.705 -6.521,-6.322 -11.933,-13.034 -16.243,-20.123 -4.312,-7.095 -7.667,-14.087 -10.063,-20.986 -2.398,-6.9 -4.074,-13.466 -5.032,-19.693 -0.963,-6.233 -1.437,-11.743 -1.437,-16.533 0,-16.294 2.632,-31.005 7.906,-44.127 5.266,-13.129 12.839,-24.25 22.712,-33.35 9.868,-9.11 21.991,-16.006 36.368,-20.699 14.373,-4.702 30.66,-7.043 48.87,-7.043 9.202,0 18.403,0.957 27.604,2.875 9.199,1.91 17.58,4.265 25.148,7.044 7.574,2.774 13.995,5.503 19.27,8.194 5.268,2.678 8.574,4.6 9.918,5.746 v 41.977 c 0,0.147 0.006,0.298 0.006,0.445 0.904,-1.99 1.802,-3.99 2.712,-5.983 l 11.506,-25.072 11.631,-25.01 4.754,-10.216 4.773,10.213 11.679,25.009 11.555,25.065 c 7.64,16.74 15.272,33.489 22.68,50.34 3.711,8.421 7.493,16.809 11.145,25.261 l 10.956,25.349 c 7.174,16.961 14.375,33.908 21.142,51.061 -8.885,-16.155 -17.335,-32.52 -25.818,-48.865" /></g><g
           transform="translate(317.9951,245.4785)"
           id="g58"><path
             id="path60"
             style="fill:#303030;fill-opacity:1;fill-rule:nonzero;stroke:none"
             d="m 0,0 -4.878,-12.477 h 9.81 z m -3.402,11.68 h 7.314 l 17.465,-40.145 h -9.981 l -3.459,8.504 H -7.654 L -11,-28.465 h -9.754 z" /></g><g
           transform="translate(366.6406,247.3477)"
           id="g62"><path
             id="path64"
             style="fill:#303030;fill-opacity:1;fill-rule:nonzero;stroke:none"
             d="m 0,0 c -1.419,1.816 -4.256,2.666 -6.408,2.666 -2.496,0 -5.955,-1.133 -5.955,-4.139 0,-7.314 18.483,-2.609 18.483,-16.672 0,-8.957 -7.198,-13.209 -15.477,-13.209 -5.16,0 -9.697,1.53 -13.496,5.045 l 6.294,6.918 c 1.816,-2.382 4.763,-3.798 7.711,-3.798 2.893,0 6.124,1.359 6.124,4.195 0,7.371 -18.824,3.402 -18.824,16.785 0,8.561 7.428,13.039 15.31,13.039 4.534,0 8.9,-1.189 12.304,-4.195 z" /></g><path
           id="path66"
           style="fill:#303030;fill-opacity:1;fill-rule:nonzero;stroke:none"
           d="m 382.626,257.158 h 8.844 v -40.145 h -8.844 z" /><g
           transform="translate(419.5361,245.4785)"
           id="g68"><path
             id="path70"
             style="fill:#303030;fill-opacity:1;fill-rule:nonzero;stroke:none"
             d="m 0,0 -4.878,-12.477 h 9.811 z m -3.404,11.68 h 7.316 l 17.463,-40.145 h -9.979 l -3.459,8.504 H -7.657 l -3.345,-8.504 h -9.752 z" /></g></g></g></g></svg>