<?xml version="1.0" encoding="UTF-8" standalone="no"?>
<svg
   xmlns:dc="http://purl.org/dc/elements/1.1/"
   xmlns:cc="http://creativecommons.org/ns#"
   xmlns:rdf="http://www.w3.org/1999/02/22-rdf-syntax-ns#"
   xmlns:svg="http://www.w3.org/2000/svg"
   xmlns="http://www.w3.org/2000/svg"
   viewBox="0 0 960 960"
   height="960"
   width="960"
   xml:space="preserve"
   id="svg2"
   version="1.1"><metadata
     id="metadata8"><rdf:RDF><cc:Work
         rdf:about=""><dc:format>image/svg+xml</dc:format><dc:type
           rdf:resource="http://purl.org/dc/dcmitype/StillImage" /></cc:Work></rdf:RDF></metadata><defs
     id="defs6"><linearGradient
       id="linearGradient46"
       spreadMethod="pad"
       gradientTransform="matrix(208.4043,0,0,208.4043,382.85611,390.64819)"
       gradientUnits="userSpaceOnUse"
       y2="0"
       x2="1"
       y1="0"
       x1="0"><stop
         id="stop26"
         offset="0"
         style="stop-opacity:1;stop-color:#b6b6b7" /><stop
         id="stop28"
         offset="0.0104802"
         style="stop-opacity:1;stop-color:#b6b6b7" /><stop
         id="stop30"
         offset="0.17066914"
         style="stop-opacity:1;stop-color:#ffffff" /><stop
         id="stop32"
         offset="0.21854"
         style="stop-opacity:1;stop-color:#ffffff" /><stop
         id="stop34"
         offset="0.3997763"
         style="stop-opacity:1;stop-color:#6e6e6e" /><stop
         id="stop36"
         offset="0.47904"
         style="stop-opacity:1;stop-color:#6e6e6e" /><stop
         id="stop38"
         offset="0.55774445"
         style="stop-opacity:1;stop-color:#6e6e6e" /><stop
         id="stop40"
         offset="0.757355"
         style="stop-opacity:1;stop-color:#f3f3f4" /><stop
         id="stop42"
         offset="0.98286989"
         style="stop-opacity:1;stop-color:#858586" /><stop
         id="stop44"
         offset="1"
         style="stop-opacity:1;stop-color:#858586" /></linearGradient><linearGradient
       id="linearGradient68"
       spreadMethod="pad"
       gradientTransform="matrix(-192.73517,-2.2634406,2.2634406,-192.73517,489.3782,398.33762)"
       gradientUnits="userSpaceOnUse"
       y2="0"
       x2="1"
       y1="0"
       x1="0"><stop
         id="stop62"
         offset="0"
         style="stop-opacity:1;stop-color:#f89736" /><stop
         id="stop64"
         offset="0.534828"
         style="stop-opacity:1;stop-color:#faef67" /><stop
         id="stop66"
         offset="1"
         style="stop-opacity:1;stop-color:#faef67" /></linearGradient><linearGradient
       id="linearGradient104"
       spreadMethod="pad"
       gradientTransform="matrix(345.16211,0,0,345.16211,129.04488,390.39914)"
       gradientUnits="userSpaceOnUse"
       y2="0"
       x2="1"
       y1="0"
       x1="0"><stop
         id="stop84"
         offset="0"
         style="stop-opacity:1;stop-color:#b6b6b7" /><stop
         id="stop86"
         offset="0.0104802"
         style="stop-opacity:1;stop-color:#b6b6b7" /><stop
         id="stop88"
         offset="0.13305404"
         style="stop-opacity:1;stop-color:#ffffff" /><stop
         id="stop90"
         offset="0.169684"
         style="stop-opacity:1;stop-color:#ffffff" /><stop
         id="stop92"
         offset="0.28186405"
         style="stop-opacity:1;stop-color:#6e6e6e" /><stop
         id="stop94"
         offset="0.330926"
         style="stop-opacity:1;stop-color:#6e6e6e" /><stop
         id="stop96"
         offset="0.41488438"
         style="stop-opacity:1;stop-color:#6e6e6e" /><stop
         id="stop98"
         offset="0.62782"
         style="stop-opacity:1;stop-color:#f3f3f4" /><stop
         id="stop100"
         offset="0.97372505"
         style="stop-opacity:1;stop-color:#858586" /><stop
         id="stop102"
         offset="1"
         style="stop-opacity:1;stop-color:#858586" /></linearGradient><clipPath
       id="clipPath118"
       clipPathUnits="userSpaceOnUse"><path
         id="path116"
         d="M 0,720 H 720 V 0 H 0 Z" /></clipPath></defs><g
     transform="matrix(1.3333333,0,0,-1.3333333,0,960)"
     id="g10"><path
       id="path12"
       style="fill:#303030;fill-opacity:1;fill-rule:nonzero;stroke:none"
       d="M 0,0.002 H 720 V 720 H 0 Z" /><g
       id="g14"><g
         id="g16"><g
           id="g22"><g
             id="g24"><path
               id="path48"
               style="fill:url(#linearGradient46);stroke:none"
               d="m 385.388,503.976 v -3.147 c 5.663,-0.84 10.278,-1.73 13.848,-2.677 v 0 c 3.565,-0.943 6.927,-3.097 10.071,-6.453 v 0 c 1.261,-1.261 2.258,-3.305 2.996,-6.138 v 0 c 0.731,-2.834 1.258,-6.034 1.573,-9.603 v 0 c 0.313,-3.571 0.521,-7.345 0.631,-11.329 v 0 c 0.103,-3.994 0.156,-7.875 0.156,-11.648 v 0 -61.389 -18.257 c 0,-6.299 -0.053,-12.435 -0.156,-18.417 v 0 c -0.11,-5.981 -0.217,-11.488 -0.318,-16.525 v 0 c -0.106,-5.039 -0.157,-9.028 -0.157,-11.963 v 0 c 0,-3.36 -0.11,-6.768 -0.315,-10.233 v 0 c -0.213,-3.465 -0.581,-6.767 -1.102,-9.914 v 0 c -0.526,-3.149 -1.102,-5.935 -1.729,-8.345 v 0 c -0.63,-2.417 -1.475,-4.248 -2.519,-5.515 v 0 c -2.945,-3.353 -6.662,-5.976 -11.178,-7.866 v 0 c -4.514,-1.885 -9.395,-3.252 -14.639,-4.09 v 0 -3.146 h 192.661 l 15.744,60.129 -3.465,0.943 c -5.252,-9.028 -10.343,-16.743 -15.267,-23.139 v 0 c -4.935,-6.405 -10.025,-11.805 -15.269,-16.213 v 0 c -5.249,-4.408 -10.704,-7.823 -16.37,-10.233 v 0 c -5.67,-2.41 -11.858,-4.044 -18.576,-4.876 v 0 c -6.089,-0.842 -11.913,-1.368 -17.469,-1.575 v 0 c -5.567,-0.211 -10.127,-0.316 -13.695,-0.316 v 0 c -8.394,0 -16.162,0.631 -23.296,1.891 v 0 c -7.136,1.259 -11.645,3.353 -13.539,6.293 v 0 c -1.883,2.935 -3.096,7.398 -3.616,13.38 v 0 c -0.529,5.981 -0.895,12.325 -1.102,19.048 v 0 c 0,2.093 -0.052,4.665 -0.156,7.71 v 0 c -0.108,3.037 -0.158,6.244 -0.158,9.602 v 0 10.703 9.444 17.631 c 0,5.663 0.201,9.964 0.63,12.906 v 0 h 8.182 6.297 c 2.092,0 4.195,-0.055 6.295,-0.159 v 0 c 2.098,-0.11 4.724,-0.267 7.868,-0.474 v 0 c 6.298,-0.419 11.808,-1.574 16.531,-3.462 v 0 c 4.721,-1.888 8.758,-4.303 12.116,-7.239 v 0 c 3.783,-3.574 7.401,-8.919 10.866,-16.056 v 0 c 3.459,-7.136 6.029,-14.064 7.708,-20.777 v 0 h 3.778 v 99.166 h -3.778 c -1.255,-5.879 -2.677,-11.178 -4.249,-15.9 v 0 c -1.575,-4.723 -3.673,-8.868 -6.295,-12.437 v 0 c -2.625,-3.568 -6.033,-6.61 -10.23,-9.128 v 0 c -4.199,-2.518 -9.442,-4.516 -15.743,-5.981 v 0 c -2.728,-0.628 -6.14,-1.099 -10.229,-1.417 v 0 c -4.093,-0.314 -8.183,-0.578 -12.278,-0.785 v 0 c -4.089,-0.213 -7.709,-0.314 -10.863,-0.314 v 0 h -6.292 v 3.46 c 0,1.89 -0.052,4.568 -0.156,8.027 v 0 c -0.108,3.465 -0.158,7.921 -0.158,13.381 v 0 20.149 c 0,13.852 0.158,26.019 0.469,36.517 v 0 c 0.315,10.49 0.681,17.416 1.104,20.778 v 0 c 2.093,0.416 5.511,0.786 10.232,1.101 v 0 c 4.723,0.313 9.284,0.473 13.694,0.473 v 0 c 13.852,0 25.6,-0.632 35.254,-1.888 v 0 c 9.651,-1.263 16.265,-2.733 19.835,-4.412 v 0 c 14.898,-7.346 30.847,-21.614 47.852,-42.812 v 0 l 3.147,1.571 -21.408,51.945 z" /></g></g></g></g><g
       id="g50"><g
         id="g52"><g
           id="g58"><g
             id="g60"><path
               id="path70"
               style="fill:url(#linearGradient68);stroke:none"
               d="M 273.421,503.981 373.633,289.983 474.207,503.981 v 0 z" /></g></g></g></g><g
       id="g72"><g
         id="g74"><g
           id="g80"><g
             id="g82"><path
               id="path106"
               style="fill:url(#linearGradient104);stroke:none"
               d="m 200.465,495.377 c -14.369,-5.849 -26.473,-13.598 -36.325,-23.243 v 0 c -6.981,-6.773 -12.773,-13.958 -17.393,-21.549 v 0 c -4.617,-7.597 -8.208,-15.086 -10.775,-22.476 v 0 c -2.566,-7.387 -4.361,-14.417 -5.383,-21.088 v 0 c -1.035,-6.672 -1.544,-12.57 -1.544,-17.701 v 0 c 0,-17.444 2.82,-33.197 8.468,-47.252 v 0 c 5.64,-14.06 13.745,-25.966 24.318,-35.707 v 0 c 10.57,-9.753 23.552,-17.142 38.946,-22.168 v 0 c 15.388,-5.033 32.832,-7.545 52.334,-7.545 v 0 c 9.85,0 19.7,1.035 29.553,3.078 v 0 c 9.852,2.053 18.824,4.569 26.938,7.541 v 0 c 8.104,2.977 14.976,5.899 20.623,8.784 v 0 c 5.646,2.865 9.186,4.918 10.624,6.146 v 0 44.951 c 0,0.16 0.003,0.32 0.003,0.479 v 0 c 0.971,-2.135 1.931,-4.27 2.905,-6.406 v 0 l 12.321,-26.85 12.456,-26.777 5.089,-10.946 5.111,10.936 12.509,26.783 12.373,26.84 c 8.181,17.929 16.35,35.858 24.284,53.905 v 0 c 3.975,9.014 8.024,17.998 11.934,27.047 v 0 l 11.737,27.144 c 7.674,18.164 15.39,36.311 22.636,54.678 v 0 c -9.516,-17.3 -18.564,-34.817 -27.649,-52.324 v 0 L 433.151,425.3 c -4.467,-8.783 -8.804,-17.637 -13.208,-26.449 v 0 c -8.832,-17.622 -17.422,-35.357 -26.002,-53.097 v 0 l -12.77,-26.658 -7.524,-15.924 -7.505,15.914 -12.734,26.654 c -3.695,7.678 -7.408,15.347 -11.135,23.013 v 0 c 0.363,1.172 0.812,2.186 1.345,3.022 v 0 c 1.848,2.876 4.82,4.974 8.922,6.311 v 0 c 4.106,1.336 7.899,2.2 11.396,2.619 v 0 3.078 h -29.032 c -2.466,5.018 -4.918,10.049 -7.412,15.052 v 0 c -4.394,8.816 -8.702,17.672 -13.165,26.452 v 0 l -13.365,26.36 c -7.72,14.938 -15.437,29.88 -23.419,44.698 v 0 c 4.129,-1.005 8.095,-2.299 11.891,-3.892 v 0 c 10.264,-4.311 18.676,-9.958 25.243,-16.932 v 0 c 5.128,-5.339 9.952,-12.112 14.469,-20.317 v 0 c 4.514,-8.213 7.903,-16.933 10.159,-26.171 v 0 h 3.697 v 67.114 h -2.771 c -2.667,-3.495 -4.924,-6.47 -6.769,-8.928 v 0 c -1.85,-2.464 -2.981,-3.691 -3.389,-3.691 v 0 c -0.414,0 -2.362,1.075 -5.853,3.229 v 0 c -3.491,2.154 -8.462,4.513 -14.926,7.08 v 0 c -6.467,2.564 -14.424,4.925 -23.861,7.081 v 0 c -3.602,0.823 -7.417,1.485 -11.435,1.993 v 0 c -0.194,0.356 -0.384,0.715 -0.577,1.07 v 0 c 0.136,-0.351 0.28,-0.701 0.423,-1.051 v 0 c -6.477,0.812 -13.486,1.22 -21.042,1.22 v 0 c -20.526,0 -37.974,-2.923 -52.337,-8.773 m 16.316,-206.569 c -10.672,5.237 -19.701,12.575 -27.088,22.016 v 0 c -7.388,9.432 -13.041,20.777 -16.933,34.014 v 0 c -3.902,13.236 -5.85,27.862 -5.85,43.869 v 0 c 0,14.569 2.052,28.474 6.158,41.713 v 0 c 4.105,13.241 9.95,24.934 17.548,35.094 v 0 c 7.587,10.159 16.823,18.267 27.707,24.324 v 0 c 10.876,6.048 23.088,9.08 36.634,9.08 v 0 c 7.578,0 14.707,-0.783 21.415,-2.312 v 0 c 6.351,-15.85 12.986,-31.571 19.609,-47.291 v 0 l 11.691,-27.142 c 3.889,-9.053 7.932,-18.031 11.894,-27.048 v 0 c 1.657,-3.791 3.359,-7.56 5.038,-11.342 v 0 h -50.868 v -3.078 c 11.9,-1.031 20.209,-4.213 24.939,-9.546 v 0 c 3.485,-3.689 5.583,-8.419 6.311,-14.161 v 0 c 0.717,-5.746 1.073,-12.207 1.073,-19.396 v 0 c 0,-7.188 -0.412,-14.158 -1.231,-20.93 v 0 c -0.823,-6.773 -2.056,-11.498 -3.694,-14.162 v 0 c -4.927,-7.596 -11.656,-13.084 -20.166,-16.471 v 0 c -8.518,-3.387 -17.699,-5.08 -27.547,-5.08 v 0 c -13.757,0 -25.969,2.619 -36.64,7.849" /></g></g></g></g><g
       transform="translate(317.8877,221.3691)"
       id="g108"><path
         id="path110"
         style="fill:#ffffff;fill-opacity:1;fill-rule:nonzero;stroke:none"
         d="M 0,0 -5.346,-13.674 H 5.406 Z m -3.73,12.801 h 8.018 l 19.14,-44 H 12.492 L 8.7,-21.877 H -8.392 l -3.667,-9.322 h -10.687 z" /></g><g
       id="g112"><g
         clip-path="url(#clipPath118)"
         id="g114"><g
           transform="translate(371.2031,223.418)"
           id="g120"><path
             id="path122"
             style="fill:#ffffff;fill-opacity:1;fill-rule:nonzero;stroke:none"
             d="m 0,0 c -1.555,1.99 -4.661,2.922 -7.021,2.922 -2.738,0 -6.529,-1.242 -6.529,-4.537 0,-8.016 20.263,-2.86 20.263,-18.272 0,-9.818 -7.896,-14.478 -16.969,-14.478 -5.654,0 -10.628,1.676 -14.791,5.529 l 6.901,7.582 c 1.988,-2.609 5.217,-4.164 8.452,-4.164 3.17,0 6.713,1.492 6.713,4.6 0,8.078 -20.635,3.728 -20.635,18.396 0,9.383 8.143,14.293 16.779,14.293 4.974,0 9.759,-1.305 13.485,-4.6 z" /></g><path
           id="path124"
           style="fill:#ffffff;fill-opacity:1;fill-rule:nonzero;stroke:none"
           d="m 388.724,234.17 h 9.698 v -44 h -9.698 z" /><g
           transform="translate(429.1787,221.3691)"
           id="g126"><path
             id="path128"
             style="fill:#ffffff;fill-opacity:1;fill-rule:nonzero;stroke:none"
             d="M 0,0 -5.347,-13.674 H 5.406 Z m -3.727,12.801 h 8.015 l 19.145,-44 H 12.491 L 8.7,-21.877 H -8.388 l -3.667,-9.322 h -10.692 z" /></g></g></g></g></svg>